<svg id="ePeujmIEDyS1" xmlns="http://www.w3.org/2000/svg" xmlns:xlink="http://www.w3.org/1999/xlink" viewBox="0 0 185 185" shape-rendering="geometricPrecision" text-rendering="geometricPrecision"><defs><linearGradient id="ePeujmIEDyS2-fill" x1="0" y1="92" x2="185" y2="92" spreadMethod="pad" gradientUnits="userSpaceOnUse" gradientTransform="translate(0 0)"><stop id="ePeujmIEDyS2-fill-0" offset="0%" stop-color="#93bfcf"/><stop id="ePeujmIEDyS2-fill-1" offset="100%" stop-color="#6096b4"/></linearGradient></defs><path d="M0,92.5C0,41.4137,41.4137,0,92.5,0h42.5c27.614,0,50,22.3858,50,50v42.5c0,51.086-41.414,92.5-92.5,92.5v0C41.4137,185,0,143.586,0,92.5v0Z" fill="url(#ePeujmIEDyS2-fill)"/><path d="M137.109,88.3594c0,0,.047.1172.141.3515v.2813c0,.1875,0,.375,0,.5625s-.047.2812-.141.2812h-.281c0,.0938-.047.1875-.14.2813-.188,0-.352.164-.493.4922-.093.3281-.234.75-.422,1.2656-.468.75-.914,1.8047-1.335,3.1641-.422,1.3125-.985,2.8359-1.688,4.5703-1.359,3.4686-2.93,7.8046-4.711,13.0076-.187.75-.422,1.406-.703,1.969-.234.562-.445,1.242-.633,2.039-.375.563-.68,1.219-.914,1.969-.234.703-.492,1.476-.773,2.32-.188.563-.469,1.219-.844,1.969-.328.703-.633,1.5-.914,2.39-.375.563-.703,1.219-.985,1.969-.281.703-.632,1.477-1.054,2.32l-.985,2.04c-.187.468-.445.89-.773,1.265s-.586.727-.773,1.055c-.188.187-.376.375-.563.562-.141.188-.305.375-.492.563l-.281.562h-.422c0,.094-.047.188-.141.282h-.281c-.094,0-.141.187-.141.562h-.281-.141-.281-.211-.281-.422-.141-.421c-.188,0-.282-.094-.282-.281c0-.188-.047-.281-.14-.281-.188,0-.328-.047-.422-.141s-.235-.141-.422-.141l-.774-1.406c0-.187-.023-.305-.07-.351-.047-.047-.164-.235-.351-.563c0-.187-.024-.375-.071-.562-.047-.188-.07-.375-.07-.563-.188,0-.281-.187-.281-.562v-.282c-.094,0-.141-.093-.141-.281v-.281c0-.469,0-.75,0-.844c0-.047-.094-.164-.281-.352v-.562-.281-3.164-1.758c.187-.563.281-1.172.281-1.828c0-.703.047-1.336.141-1.899.187-1.172.304-2.273.351-3.304.047-1.078.164-2.18.352-3.305.375-4.313.961-8.649,1.758-13.008.187-2.203.422-4.4061.703-6.6092.281-2.2032.609-4.4063.984-6.6094.188-2.2032.422-4.4532.703-6.75.328-2.2969.586-4.5469.774-6.75.187-2.2969.351-4.5469.492-6.75.14-2.25.211-4.6172.211-7.1016c0-2.2031-.071-4.3125-.211-6.3281-.141-2.0156-.352-3.75-.633-5.2031-.187-.8438-.398-1.6172-.633-2.3204-.234-.75-.562-1.4062-.984-1.9687-.563-.8437-1.406-1.7109-2.531-2.6016h-.914c0-.1875-.024-.2812-.071-.2812s-.07-.0469-.07-.1406v-.1407h-.422-.844-.914-.844-1.124c-.094,0-.211.0938-.352.2813s-.305.2812-.492.2812c-.282,0-.586.0938-.914.2813h-.844c-.094.2812-.211.4453-.352.4922-.14.0469-.304.164-.492.3515-.375,0-.68.1875-.914.5625-.094,0-.211.0469-.351.1407-.141.0937-.305.1406-.493.1406-.281.2812-.539.5391-.773.7734-.234.1875-.539.4219-.914.7031-.281.1876-.5626.4454-.8439.7735-.2343.3281-.539.6562-.914.9844-1.0782,1.0781-2.1563,2.1797-3.2344,3.3047-1.0313,1.125-2.0156,2.414-2.9531,3.8671-1.0782,1.3594-2.0625,2.836-2.9532,4.4297-.8437,1.5469-1.6875,3.1406-2.5312,4.7813-.8438,1.4531-1.711,3-2.6016,4.6406-.8437,1.5937-1.7109,3.2109-2.6015,4.8516-.75,1.4531-1.5235,2.9765-2.3203,4.5703-.75,1.5468-1.5469,3-2.3907,4.3594-.75,1.6406-1.5,3.1406-2.25,4.5-.7031,1.3124-1.4531,2.6953-2.25,4.1484-.75,1.3594-1.5234,2.6719-2.3203,3.9375-.75,1.2187-1.5,2.4141-2.25,3.5859-1.4531,2.7654-2.8125,5.1564-4.0781,7.1714-.375.469-.7031,1.008-.9844,1.618-.2812.562-.6094,1.078-.9844,1.547-.1875.562-.4453,1.101-.7734,1.617-.2813.468-.6094,1.078-.9844,1.828-1.1719,1.922-2.25,3.703-3.2343,5.344-.9844,1.64-1.9688,3.117-2.9532,4.429-.8437,1.641-1.5703,2.977-2.1797,4.008-.6562.985-1.2187,1.875-1.6875,2.672-.375.469-.6328.797-.7734.984-.1875.188-.375.422-.5625.703l-.2813.282c-.1874.75-.375.75-.5624,0v-.844-.141c0-.093.0234-.187.0703-.281s.0703-.234.0703-.422c.0937-.094.375-.961.8437-2.601.375-.844.7969-1.993,1.2657-3.446.4218-1.453.9609-3.187,1.6171-5.203.6563-1.734,1.3829-3.656,2.1797-5.765.8438-2.11,1.7578-4.313,2.7422-6.61.1875-.75.4453-1.406.7734-1.969.3282-.609.586-1.312.7735-2.109l.9141-1.6874c.0937-.4687.2109-.7968.3515-.9844.1406-.2343.3047-.5859.4922-1.0546.9375-2.5782,2.2266-5.1563,3.8672-7.7344.6562-1.6406,1.2891-3.1406,1.8984-4.5.6563-1.3594,1.3828-2.7422,2.1797-4.1484.75-1.3594,1.5469-2.7422,2.3906-4.1485.8907-1.4531,1.7578-2.8594,2.6016-4.2187.8438-1.4532,1.7344-2.8125,2.6719-4.0782.9375-1.3125,1.9219-2.6484,2.9531-4.0078.9375-1.1718,1.9219-2.3672,2.9531-3.5859c1.0313-1.2656,2.0625-2.5547,3.0938-3.8672c1.0781-1.0781,2.1562-2.2031,3.2343-3.375c1.125-1.2187,2.2032-2.3906,3.2344-3.5156c1.0782-1.3594,2.1563-2.5547,3.2344-3.586c1.125-1.0781,2.2734-2.2031,3.4453-3.375c1.0781-1.3593,2.2027-2.5312,3.3747-3.5156s2.438-1.9219,3.797-2.8125c.094,0,.211-.0937.352-.2812.14-.1875.304-.2813.492-.2813.187,0,.351-.0469.492-.1406.188-.0938.375-.1406.563-.1406.187-.375.468-.5625.843-.5625.282-.1875.657-.2813,1.125-.2813.282-.375.633-.5859,1.055-.6328l1.125-.2813h.141.281.422h1.336c.656,0,1.359.211,2.109.6329.797.375,1.57.8437,2.32,1.4062.657.8438,1.336,1.8985,2.039,3.1641.282.5625.586,1.1953.915,1.8984.328.6563.609,1.2656.843,1.8281.188.75.375,1.4532.563,2.1094.187.6094.328,1.3594.422,2.25.187.75.351,1.4297.492,2.0391.141.5625.258,1.2187.351,1.9687.188,1.4532.352,2.9297.493,4.4297.14,1.4531.211,2.8594.211,4.2188.093,1.4531.14,2.8359.14,4.1484c0,1.2656,0,2.5781,0,3.9375-.094,1.3594-.14,2.6484-.14,3.8672c0,1.2187-.094,2.5078-.282,3.8672-.093,2.5781-.234,5.1562-.422,7.7343-.187,2.5313-.375,5.0391-.562,7.5235-.188,2.2969-.445,4.6406-.774,7.0312-.328,2.3441-.609,4.6171-.843,6.8201-.281,1.922-.539,3.75-.774,5.485-.234,1.734-.445,3.445-.633,5.132.188-.937.516-1.593.985-1.968.656-1.36,1.265-2.578,1.828-3.657.609-1.125,1.266-2.226,1.969-3.304c1.078-2.016,2.133-3.891,3.164-5.625c1.031-1.7815,1.992-3.3518,2.883-4.7112.843-1.6406,1.617-2.9531,2.32-3.9375.75-1.0312,1.406-1.9219,1.969-2.6719.281-.1875.539-.375.773-.5625.235-.2343.445-.3515.633-.3515h.352.14.281ZM115.031,122.672h-.281.281Zm-.281,0h-.141.141Z" transform="matrix(.885385-1.041586-.764555-.649898 75.478619 244.302577)" fill-opacity="0.86"/></svg>
